<?xml version="1.0" standalone="no"?>
<!DOCTYPE svg PUBLIC "-//W3C//DTD SVG 20010904//EN"
 "http://www.w3.org/TR/2001/REC-SVG-20010904/DTD/svg10.dtd">
<svg version="1.0" xmlns="http://www.w3.org/2000/svg"
 width="1536.000000pt" height="1024.000000pt" viewBox="0 0 1536.000000 1024.000000"
 preserveAspectRatio="xMidYMid meet">

<g transform="translate(0.000000,1024.000000) scale(0.100000,-0.100000)"
fill="#000000" stroke="none">
<path d="M3840 6055 c-267 -124 -496 -233 -510 -243 -28 -21 -36 -52 -21 -80
6 -11 61 -42 123 -70 62 -28 289 -130 503 -228 499 -228 422 -223 795 -52 151
69 369 169 485 222 115 53 221 104 235 114 36 27 36 55 3 83 -16 14 -254 127
-530 252 -435 197 -507 227 -549 227 -43 0 -111 -29 -534 -225z"/>
<path d="M5980 5210 l0 -480 310 0 310 0 0 85 0 85 -218 0 -218 0 1 115 0 115
198 0 197 0 0 85 0 85 -197 0 -198 0 2 107 2 108 215 3 216 2 0 85 0 85 -310
0 -310 0 0 -480z"/>
<path d="M7232 5520 c2 -94 1 -170 -1 -170 -2 0 -12 11 -22 24 -27 34 -94 64
-161 72 -43 5 -72 2 -125 -14 -82 -25 -138 -77 -180 -167 -26 -55 -28 -70 -28
-175 0 -138 21 -201 91 -279 99 -110 302 -125 401 -29 l33 32 0 -42 0 -42 90
0 90 0 0 480 0 480 -95 0 -96 0 3 -170z m-105 -241 c44 -16 90 -67 103 -114 7
-24 11 -76 8 -114 -4 -75 -19 -106 -71 -145 -37 -27 -133 -34 -175 -12 -96 49
-133 221 -69 318 41 61 136 93 204 67z"/>
<path d="M8340 5210 l0 -480 95 0 95 0 2 320 3 321 235 -321 234 -320 88 0 88
0 0 480 0 480 -90 0 -90 0 -2 -326 -3 -326 -235 324 -235 323 -93 3 -92 3 0
-481z"/>
<path d="M9543 5436 c-114 -37 -195 -127 -228 -251 -30 -117 -13 -239 47 -327
130 -192 470 -194 588 -2 12 19 21 36 19 38 -2 1 -35 20 -73 41 -64 35 -69 36
-79 19 -17 -31 -57 -63 -94 -75 -47 -15 -128 -6 -161 18 -34 25 -72 80 -72
104 0 18 13 19 251 19 l251 0 -4 93 c-2 73 -9 103 -29 147 -59 126 -146 182
-288 187 -53 2 -102 -2 -128 -11z m166 -146 c19 -5 45 -19 57 -31 25 -24 50
-86 39 -97 -4 -4 -76 -7 -161 -7 -167 -1 -168 -1 -140 53 39 75 119 107 205
82z"/>
<path d="M11737 5434 c-112 -35 -185 -169 -146 -271 12 -34 64 -89 100 -108
14 -8 68 -26 120 -40 115 -32 139 -47 139 -83 0 -48 -33 -72 -97 -72 -62 0
-120 41 -139 97 -1 4 -146 -46 -151 -51 -7 -6 26 -78 45 -99 79 -89 276 -121
402 -66 91 40 130 99 130 195 0 117 -63 176 -234 218 -104 26 -136 45 -136 82
0 88 162 81 193 -8 5 -16 12 -15 81 8 42 14 76 30 76 35 0 19 -33 75 -63 107
-63 66 -206 91 -320 56z"/>
<path d="M7562 5163 c3 -258 4 -270 27 -316 61 -124 218 -171 350 -105 25 13
56 38 68 57 l23 34 0 -52 0 -52 88 3 87 3 3 325 c1 179 0 335 -3 348 -5 21
-11 22 -90 22 l-85 0 -1 -217 c0 -245 -6 -275 -58 -310 -47 -32 -136 -32 -176
-1 -50 39 -55 68 -55 308 l0 220 -91 0 -90 0 3 -267z"/>
<path d="M10046 5418 c4 -7 33 -49 64 -93 31 -44 80 -115 109 -157 l52 -78
-121 -177 -121 -178 92 -3 c51 -1 97 -1 103 1 6 3 44 57 85 121 65 102 75 114
86 99 6 -10 40 -64 75 -120 l63 -103 105 0 c102 0 104 0 91 20 -8 11 -63 92
-122 179 l-108 160 99 143 c54 79 107 155 117 171 l17 27 -99 0 -99 0 -73
-116 -73 -115 -72 115 -71 115 -103 1 c-80 0 -102 -3 -96 -12z"/>
<path d="M10824 5416 c-3 -8 -4 -128 -2 -268 3 -217 6 -259 21 -293 49 -109
162 -162 292 -135 44 9 66 21 100 54 l44 42 3 -41 3 -40 88 -3 87 -3 0 338 c0
186 -4 344 -9 351 -5 9 -30 12 -87 10 l-79 -3 -5 -238 -5 -239 -37 -34 c-28
-25 -47 -34 -75 -35 -62 -2 -85 2 -111 19 -46 30 -52 64 -52 307 l0 225 -85 0
c-65 0 -87 -3 -91 -14z"/>
<path d="M3750 5240 c0 -223 10 -238 215 -326 232 -99 270 -109 430 -109 139
0 141 0 265 43 168 59 318 137 347 181 22 32 23 44 23 202 0 93 -4 169 -8 169
-5 0 -134 -57 -288 -127 -211 -95 -292 -128 -331 -131 -49 -4 -68 3 -347 127
-163 72 -298 131 -301 131 -3 0 -5 -72 -5 -160z"/>
</g>
</svg>
